<svg xmlns="http://www.w3.org/2000/svg" width="600" height="600" viewBox="0 0 600 600" style="color:#1a1a1e"><rect width="600" height="600" fill="#ffffff"/><svg x="29" y="18" width="92" height="92" viewBox="0 0 24 24" fill="currentColor"><g transform="translate(12 12) scale(0.98) translate(-12 -12)"><path d="M12 3.6 19.6 11.2H15.4V20.4H8.6V11.2H4.4Z" stroke="currentColor" stroke-width="2.4" stroke-linejoin="round" stroke-linecap="round"/></g></svg><text x="75" y="132" text-anchor="middle" font-family="-apple-system,system-ui,sans-serif" font-size="15" fill="#8a8f99">send</text>
<svg x="179" y="18" width="92" height="92" viewBox="0 0 24 24" fill="currentColor"><g transform="translate(12 12) scale(0.98) translate(-12 -12)"><path fill-rule="evenodd" d="M6.8 3.4h10.4a3.6 3.6 0 0 1 3.6 3.6V13a3.6 3.6 0 0 1-3.6 3.6h-5.2l-3.6 2.9a.7.7 0 0 1-1.14-.56V16.6H6.8A3.6 3.6 0 0 1 3.2 13V7A3.6 3.6 0 0 1 6.8 3.4Zm1.7 5.6a1 1 0 1 0 0 2 1 1 0 0 0 0-2Zm3.5 0a1 1 0 1 0 0 2 1 1 0 0 0 0-2Zm3.5 0a1 1 0 1 0 0 2 1 1 0 0 0 0-2Z"/></g></svg><text x="225" y="132" text-anchor="middle" font-family="-apple-system,system-ui,sans-serif" font-size="15" fill="#8a8f99">message</text>
<svg x="329" y="18" width="92" height="92" viewBox="0 0 24 24" fill="currentColor"><g transform="translate(12 12) scale(0.98) translate(-12 -12)"><path d="M13.5 3 19 8.5H13.5Z" opacity=".4"/><path fill-rule="evenodd" d="M8 3H13.5V8.5H19V18A3 3 0 0 1 16 21H8A3 3 0 0 1 5 18V6A3 3 0 0 1 8 3ZM8 10.8a.8 .8 0 1 0 0 1.6h7a.8 .8 0 1 0 0-1.6ZM8 13.8a.8 .8 0 1 0 0 1.6h7a.8 .8 0 1 0 0-1.6ZM8 16.8a.8 .8 0 1 0 0 1.6h4a.8 .8 0 1 0 0-1.6Z"/></g></svg><text x="375" y="132" text-anchor="middle" font-family="-apple-system,system-ui,sans-serif" font-size="15" fill="#8a8f99">note</text>
<svg x="479" y="18" width="92" height="92" viewBox="0 0 24 24" fill="currentColor"><g transform="translate(12 12) scale(0.98) translate(-12 -12)"><path fill-rule="evenodd" d="M6.4 4H17.6A3.4 3.4 0 0 1 21 7.4V16.6A3.4 3.4 0 0 1 17.6 20H6.4A3.4 3.4 0 0 1 3 16.6V7.4A3.4 3.4 0 0 1 6.4 4ZM6.3 8.8a1.7 1.7 0 1 0 3.4 0 1.7 1.7 0 1 0-3.4 0ZM5.6 16.4 10 12.2a1.5 1.5 0 0 1 2.1 0L17.8 16.4Z"/></g></svg><text x="525" y="132" text-anchor="middle" font-family="-apple-system,system-ui,sans-serif" font-size="15" fill="#8a8f99">image</text>
<svg x="29" y="168" width="92" height="92" viewBox="0 0 24 24" fill="currentColor"><g transform="translate(12 12) scale(0.98) translate(-12 -12)"><path d="M12 21 4.2 13.2C1.7 10.7 1.9 6.7 4.7 4.8 7 3.2 9.9 3.9 11.4 5.7c.3.4.9.4 1.2 0C14.1 3.9 17 3.2 19.3 4.8c2.8 1.9 3 5.9.5 8.4Z"/></g></svg><text x="75" y="282" text-anchor="middle" font-family="-apple-system,system-ui,sans-serif" font-size="15" fill="#8a8f99">heart</text>
<svg x="179" y="168" width="92" height="92" viewBox="0 0 24 24" fill="currentColor"><g transform="translate(12 12) scale(0.98) translate(-12 -12)"><path d="M12 2.4c.6 6.4 2.8 8.6 9.2 9.2-6.4.6-8.6 2.8-9.2 9.2-.6-6.4-2.8-8.6-9.2-9.2 6.4-.6 8.6-2.8 9.2-9.2z"/></g></svg><text x="225" y="282" text-anchor="middle" font-family="-apple-system,system-ui,sans-serif" font-size="15" fill="#8a8f99">sparkle</text>
<svg x="329" y="168" width="92" height="92" viewBox="0 0 24 24" fill="currentColor"><g transform="translate(12 12) scale(0.98) translate(-12 -12)"><rect x="9.5" y="3" width="5" height="18" rx="2.5"/><rect x="3" y="9.5" width="18" height="5" rx="2.5"/></g></svg><text x="375" y="282" text-anchor="middle" font-family="-apple-system,system-ui,sans-serif" font-size="15" fill="#8a8f99">plus</text>
<svg x="479" y="168" width="92" height="92" viewBox="0 0 24 24" fill="currentColor"><g transform="translate(12 12) scale(0.98) translate(-12 -12)"><path d="M5 12.8 9.8 17.6 19 7" fill="none" stroke="currentColor" stroke-width="3.6" stroke-linecap="round" stroke-linejoin="round"/></g></svg><text x="525" y="282" text-anchor="middle" font-family="-apple-system,system-ui,sans-serif" font-size="15" fill="#8a8f99">check</text>
<svg x="29" y="318" width="92" height="92" viewBox="0 0 24 24" fill="currentColor"><g transform="translate(12 12) scale(0.98) translate(-12 -12)"><path d="M12 2.4a6.6 6.6 0 0 1 6.6 6.6c0 4.6 1.05 5.7 1.9 6.7.55.66 0 1.7-.85 1.7H4.35c-.85 0-1.4-1.04-.85-1.7.85-1 1.9-2.1 1.9-6.7A6.6 6.6 0 0 1 12 2.4Z"/><circle cx="12" cy="19.8" r="2.2"/></g></svg><text x="75" y="432" text-anchor="middle" font-family="-apple-system,system-ui,sans-serif" font-size="15" fill="#8a8f99">bell</text>
<svg x="179" y="318" width="92" height="92" viewBox="0 0 24 24" fill="currentColor"><g transform="translate(12 12) scale(0.98) translate(-12 -12)"><path d="M9.8 4.9V4.4a1.4 1.4 0 0 1 1.4-1.4h1.6a1.4 1.4 0 0 1 1.4 1.4v.5Z"/><rect x="4.2" y="5.2" width="15.6" height="2.6" rx="1.3"/><path fill-rule="evenodd" d="M6 8.6H18L17.25 18.4A2.6 2.6 0 0 1 14.65 20.8H9.35A2.6 2.6 0 0 1 6.75 18.4ZM9.1 11.4a.5 .5 0 0 1 1 0V16.6a.5 .5 0 0 1-1 0ZM11.5 11.4a.5 .5 0 0 1 1 0V16.6a.5 .5 0 0 1-1 0ZM13.9 11.4a.5 .5 0 0 1 1 0V16.6a.5 .5 0 0 1-1 0Z"/></g></svg><text x="225" y="432" text-anchor="middle" font-family="-apple-system,system-ui,sans-serif" font-size="15" fill="#8a8f99">trash</text>
<svg x="329" y="318" width="92" height="92" viewBox="0 0 24 24" fill="currentColor"><g transform="translate(12 12) scale(0.98) translate(-12 -12)"><circle cx="12" cy="7.8" r="4.6"/><path d="M3.8 20c0-4.7 3.7-7.2 8.2-7.2s8.2 2.5 8.2 7.2a1.2 1.2 0 0 1-1.2 1.2H5a1.2 1.2 0 0 1-1.2-1.2Z"/></g></svg><text x="375" y="432" text-anchor="middle" font-family="-apple-system,system-ui,sans-serif" font-size="15" fill="#8a8f99">user</text>
<svg x="479" y="318" width="92" height="92" viewBox="0 0 24 24" fill="currentColor"><g transform="translate(12 12) scale(0.98) translate(-12 -12)"><circle cx="10.5" cy="10.5" r="6.8" fill="none" stroke="currentColor" stroke-width="3.4"/><path d="M15.8 15.8 20.8 20.8" fill="none" stroke="currentColor" stroke-width="3.6" stroke-linecap="round"/></g></svg><text x="525" y="432" text-anchor="middle" font-family="-apple-system,system-ui,sans-serif" font-size="15" fill="#8a8f99">search</text>
<svg x="29" y="468" width="92" height="92" viewBox="0 0 24 24" fill="currentColor"><g transform="translate(12 12) scale(0.98) translate(-12 -12)"><path d="M7.4 5H16.6A3.4 3.4 0 0 1 20 8.4V9.8H4V8.4A3.4 3.4 0 0 1 7.4 5Z" opacity=".4"/><path fill-rule="evenodd" d="M4 9.8H20V17.6A3.4 3.4 0 0 1 16.6 21H7.4A3.4 3.4 0 0 1 4 17.6V9.8ZM7.8 12.8a.7 .7 0 1 0 1.4 0 .7 .7 0 1 0-1.4 0ZM11.3 12.8a.7 .7 0 1 0 1.4 0 .7 .7 0 1 0-1.4 0ZM14.8 12.8a.7 .7 0 1 0 1.4 0 .7 .7 0 1 0-1.4 0ZM7.8 15.2a.7 .7 0 1 0 1.4 0 .7 .7 0 1 0-1.4 0ZM11.3 15.2a.7 .7 0 1 0 1.4 0 .7 .7 0 1 0-1.4 0ZM14.8 15.2a.7 .7 0 1 0 1.4 0 .7 .7 0 1 0-1.4 0ZM7.8 17.6a.7 .7 0 1 0 1.4 0 .7 .7 0 1 0-1.4 0ZM11.3 17.6a.7 .7 0 1 0 1.4 0 .7 .7 0 1 0-1.4 0Z"/><rect x="7.3" y="2.8" width="2.8" height="4.2" rx="1.4"/><rect x="13.9" y="2.8" width="2.8" height="4.2" rx="1.4"/></g></svg><text x="75" y="582" text-anchor="middle" font-family="-apple-system,system-ui,sans-serif" font-size="15" fill="#8a8f99">calendar</text>
<svg x="179" y="468" width="92" height="92" viewBox="0 0 24 24" fill="currentColor"><g transform="translate(12 12) scale(0.98) translate(-12 -12)"><path d="M10.8 3 3.4 9.3A2.2 2.2 0 0 0 2.6 11v8.6a1.7 1.7 0 0 0 1.7 1.7H9V14.8a3 3 0 0 1 6 0v6.5h4.7a1.7 1.7 0 0 0 1.7-1.7V11a2.2 2.2 0 0 0-.8-1.7L13.2 3a1.7 1.7 0 0 0-2.4 0Z"/></g></svg><text x="225" y="582" text-anchor="middle" font-family="-apple-system,system-ui,sans-serif" font-size="15" fill="#8a8f99">home</text>
<svg x="329" y="468" width="92" height="92" viewBox="0 0 24 24" fill="currentColor"><g transform="translate(12 12) scale(0.98) translate(-12 -12)"><path d="M6.6 3h10.8a2.1 2.1 0 0 1 2.1 2.1v15.4a.95.95 0 0 1-1.48.78L12 17.4l-6.02 3.88A.95.95 0 0 1 4.5 20.5V5.1A2.1 2.1 0 0 1 6.6 3Z"/></g></svg><text x="375" y="582" text-anchor="middle" font-family="-apple-system,system-ui,sans-serif" font-size="15" fill="#8a8f99">bookmark</text>
<svg x="479" y="468" width="92" height="92" viewBox="0 0 24 24" fill="currentColor"><g transform="translate(12 12) scale(0.98) translate(-12 -12)"><path d="M13.6 2.2 4.9 13.4a1 1 0 0 0 .8 1.6H10l-1.3 7.2a.6.6 0 0 0 1.1.45l8.6-11.6a1 1 0 0 0-.8-1.6H14l1.2-7a.6.6 0 0 0-1.1-.45Z" stroke="currentColor" stroke-width="1" stroke-linejoin="round"/></g></svg><text x="525" y="582" text-anchor="middle" font-family="-apple-system,system-ui,sans-serif" font-size="15" fill="#8a8f99">bolt</text></svg>